<svg width="210" height="19" viewBox="0 0 210 19" fill="none" xmlns="http://www.w3.org/2000/svg">
<path fill-rule="evenodd" clip-rule="evenodd" d="M13.7231 13.3709V6.78297C13.7231 4.91417 12.7227 4.02697 11.0427 4.02697C9.6458 4.02697 8.4378 4.85758 7.9092 5.68808C7.5694 4.64988 6.72 4.02697 5.3798 4.02697C3.9829 4.02697 2.7749 4.89528 2.3973 5.44268V4.25357H0V13.3709H2.3973V7.23607C2.756 6.72637 3.4544 6.16007 4.2849 6.16007C5.2665 6.16007 5.644 6.76407 5.644 7.61357V13.3709H8.0602V7.21717C8.4 6.72637 9.0984 6.16007 9.9478 6.16007C10.9294 6.16007 11.3069 6.76407 11.3069 7.61357L11.307 13.3709H13.7231ZM20.311 13.5974C17.3097 13.5974 15.4975 11.4077 15.4975 8.80277C15.4975 6.21667 17.3096 4.02707 20.311 4.02707C23.3312 4.02707 25.1434 6.21677 25.1434 8.80277C25.1434 11.4077 23.3313 13.5974 20.311 13.5974ZM20.311 11.4644C21.8022 11.4644 22.6517 10.2374 22.6517 8.80277C22.6517 7.38707 21.8023 6.16007 20.311 6.16007C18.8197 6.16007 17.9892 7.38707 17.9892 8.80277C17.9892 10.2374 18.8198 11.4644 20.311 11.4644ZM35.4688 13.3709V6.93397C35.4688 5.15957 34.5061 4.02697 32.5052 4.02697C31.014 4.02697 29.9003 4.74428 29.3151 5.44268V4.25357H26.9177V13.3709H29.3151V7.23607C29.7115 6.68867 30.4477 6.16007 31.3915 6.16007C32.4108 6.16007 33.0715 6.59427 33.0715 7.85897V13.3709H35.4688V13.3709ZM42.0755 13.5974C39.0742 13.5974 37.262 11.4077 37.262 8.80277C37.262 6.21667 39.0741 4.02707 42.0755 4.02707C45.0957 4.02707 46.9079 6.21677 46.9079 8.80277C46.9079 11.4077 45.0958 13.5974 42.0755 13.5974ZM42.0755 11.4644C43.5667 11.4644 44.4162 10.2374 44.4162 8.80277C44.4162 7.38707 43.5668 6.16007 42.0755 6.16007C40.5842 6.16007 39.7537 7.38707 39.7537 8.80277C39.7537 10.2374 40.5843 11.4644 42.0755 11.4644ZM51.0795 10.445C51.4759 11.0302 52.3631 11.4643 53.137 11.4643C54.5339 11.4643 55.4588 10.4072 55.4588 8.82157C55.4588 7.23597 54.5339 6.15997 53.137 6.15997C52.3631 6.15997 51.4759 6.61297 51.0795 7.21707V10.445ZM51.0795 13.3709H48.6822V0.780273H51.0795V5.42387C51.7968 4.49897 52.8161 4.02697 53.8921 4.02697C56.2139 4.02697 57.9317 5.83907 57.9317 8.82157C57.9317 11.8607 56.1951 13.5973 53.8921 13.5973C52.7973 13.5973 51.7968 13.1065 51.0795 12.2004V13.3709V13.3709ZM67.6153 13.3709H65.218V12.4271C64.5951 13.1633 63.5191 13.5974 62.3299 13.5974C60.8764 13.5974 59.1587 12.6158 59.1587 10.5772C59.1587 8.44417 60.8765 7.63247 62.3299 7.63247C63.538 7.63247 64.6139 8.02887 65.218 8.74617V7.51917C65.218 6.59427 64.4252 5.99018 63.2171 5.99018C62.2355 5.99018 61.3295 6.34887 60.5555 7.06617L59.6494 5.46167C60.7631 4.48007 62.1977 4.02707 63.6323 4.02707C65.7087 4.02707 67.6152 4.85767 67.6152 7.48147L67.6153 13.3709V13.3709ZM63.2926 11.974C64.0665 11.974 64.8216 11.7097 65.218 11.1812V10.0486C64.8216 9.52007 64.0665 9.25577 63.2926 9.25577C62.3488 9.25577 61.5748 9.74657 61.5748 10.6338C61.5748 11.4832 62.3487 11.974 63.2926 11.974V11.974ZM78.5447 13.3709V6.93397C78.5447 5.15957 77.582 4.02697 75.5811 4.02697C74.0899 4.02697 72.9762 4.74428 72.391 5.44268V4.25357H69.9937V13.3709H72.391V7.23607C72.7874 6.68867 73.5236 6.16007 74.4674 6.16007C75.4867 6.16007 76.1474 6.59427 76.1474 7.85897V13.3709H78.5447V13.3709ZM89.8328 13.3709L86.1142 8.38747L89.7196 4.25357H86.7748L83.3204 8.31197V0.780273H80.9231V13.3709H83.3204V11.0302L84.4152 9.85987L86.8315 13.3709H89.8328V13.3709Z" fill="black"/>
<path fill-rule="evenodd" clip-rule="evenodd" d="M202.336 2.50301H204.3V8.7495H204.411L206.964 5.74891L208.776 5.74421L205.974 9.024L209.349 13.1257H207.087L204.328 9.30791H204.3V13.1257H202.336V2.50301V2.50301ZM108.975 2.97811V8.80301C108.975 10.7874 109.562 11.872 111.208 11.872C112.784 11.872 113.414 10.5569 113.414 8.9178V2.97811H115.27V9.28051C115.27 11.843 113.592 13.2949 111.15 13.2949C108.355 13.2949 106.901 11.9445 106.901 9.1791L106.901 2.97811H108.975V2.97811ZM119.608 6.73051C120.273 6.03601 121.198 5.70251 122.126 5.70251C123.847 5.70251 124.758 6.62741 124.758 8.45291V13.1193L122.805 13.1194V8.6724C122.805 7.657 122.349 6.99001 121.332 6.99001C120.376 6.99001 119.625 7.61371 119.625 8.80291V13.1193L117.67 13.1194V5.8748H119.608V6.73051V6.73051ZM127.056 13.1194H129.012V5.8748H127.056V13.1194ZM126.864 3.7024C126.864 3.1526 127.334 2.58631 127.998 2.58631C128.675 2.58631 129.202 3.1376 129.202 3.7024C129.202 4.3245 128.749 4.9191 128.027 4.9191C127.334 4.9191 126.864 4.3245 126.864 3.7024ZM133.339 13.1194L130.209 5.8441H132.282C132.915 7.5107 133.573 9.07831 134.19 11.0917L134.22 11.0918C134.884 9.07831 135.509 7.51081 136.185 5.84421L138.02 5.8441L134.706 13.1194H133.339V13.1194ZM143.84 8.62921C143.917 7.52491 143.519 6.77381 142.55 6.77381C141.428 6.77381 140.925 7.65711 140.946 8.62921H143.84ZM140.914 9.67211C140.87 11.0351 141.84 12.0474 143.061 12.0474C143.786 12.0474 144.547 11.8012 145.035 11.467L145.593 12.4824C144.593 13.0613 143.547 13.2949 142.709 13.2949C140.487 13.2949 138.826 11.7431 138.826 9.35291C138.826 7.12081 140.472 5.70271 142.576 5.70271C144.871 5.70271 145.828 7.5125 145.684 9.6723L140.914 9.67211V9.67211ZM149.523 7.14971H149.55L149.948 6.58501C150.167 6.26491 150.609 5.70251 151.212 5.70251C151.653 5.70251 152.126 5.93451 152.538 6.35291L151.801 7.68601C151.477 7.52481 151.27 7.4398 150.876 7.4398C150.198 7.4398 149.537 7.9762 149.537 9.5398V13.1192L147.575 13.1194V5.8748H149.523V7.14971V7.14971ZM157.76 7.23631C157.32 6.91781 156.863 6.77381 156.508 6.77381C156.067 6.77381 155.625 7.0192 155.625 7.5123C155.625 8.092 156.333 8.4262 157.156 9.0177C158.204 9.7893 158.51 10.542 158.51 11.205C158.51 12.2228 157.375 13.2948 155.76 13.2948C154.744 13.2948 153.994 12.9456 153.304 12.4682L153.922 11.467C154.361 11.817 154.992 12.1623 155.521 12.1623C156.084 12.1623 156.582 11.8721 156.582 11.2641C156.582 10.583 155.816 10.207 155.112 9.71391C154.273 9.15001 153.701 8.5986 153.701 7.702C153.701 6.5553 154.816 5.70271 156.257 5.70271C157.069 5.70271 157.861 5.90401 158.395 6.36971L157.76 7.23641L157.76 7.23631ZM163.333 9.26551C162.378 9.56991 161.893 10.1055 161.893 10.9306C161.893 11.5693 162.305 12.0042 162.78 12.0042C163.556 12.0042 164.572 11.047 164.427 8.91791L163.333 9.26551V9.26551ZM163.955 12.4249C163.424 12.8598 162.747 13.2948 162.073 13.2948C160.924 13.2948 159.965 12.4249 159.965 11.0918C159.965 9.71381 160.982 8.94701 162.69 8.45301L164.427 7.9457C164.324 7.2803 163.719 6.8611 163.089 6.8611C162.248 6.8611 161.659 7.16551 161.144 7.60041L160.51 6.6873C161.424 5.9488 162.319 5.70261 163.333 5.70261C164.69 5.70261 166.353 6.13441 166.353 8.39721V11.3514C166.353 11.9318 166.425 12.6145 166.663 13.1195L164.589 13.1194C164.438 12.8724 164.396 12.454 164.396 12.0623L163.955 12.4249V12.4249ZM168.546 13.1194H170.504V2.4707H168.546V13.1194V13.1194ZM187.833 9.26551C186.875 9.56991 186.39 10.1055 186.39 10.9306C186.39 11.5693 186.8 12.0042 187.273 12.0042C188.05 12.0042 189.067 11.047 188.923 8.91791L187.833 9.26551V9.26551ZM188.447 12.4249C187.92 12.8598 187.242 13.2948 186.565 13.2948C185.419 13.2948 184.46 12.4249 184.46 11.0918C184.46 9.71381 185.476 8.94701 187.185 8.45301L188.923 7.9457C188.816 7.2803 188.216 6.8611 187.579 6.8611C186.742 6.8611 186.153 7.16551 185.638 7.60041L185.005 6.6873C185.918 5.9488 186.816 5.70261 187.833 5.70261C189.184 5.70261 190.845 6.13441 190.845 8.39721V11.3514C190.845 11.9318 190.918 12.6145 191.153 13.1195L189.081 13.1194C188.936 12.8724 188.887 12.454 188.887 12.0623L188.447 12.4249V12.4249ZM194.98 6.73051C195.643 6.03601 196.571 5.70251 197.497 5.70251C199.218 5.70251 200.13 6.62741 200.13 8.45291V13.1193L198.174 13.1194V8.6724C198.174 7.657 197.717 6.99001 196.702 6.99001C195.745 6.99001 194.995 7.61371 194.995 8.80291V13.1193L193.039 13.1194V5.8748H194.98V6.73051V6.73051ZM177.642 11.8995H178.7C179.849 11.8995 180.719 11.3065 180.719 10.1778C180.719 8.9886 179.821 8.48211 178.688 8.48211H177.642V11.8995ZM177.642 7.23631H178.292C179.485 7.23631 180.295 6.4836 180.295 5.5398C180.295 4.6432 179.615 4.25311 178.718 4.25311L177.641 4.25301V7.23631H177.642V7.23631ZM175.569 13.1469V3.00561H179.292C181.027 3.00561 182.25 3.78741 182.25 5.16381C182.25 6.78561 180.911 7.45411 180.191 7.64131V7.67041C181.471 7.72941 182.896 8.59691 182.896 10.1471C182.896 11.8995 181.409 13.1469 178.985 13.1469H175.569Z" fill="black" fill-opacity="0.6"/>
<path fill-rule="evenodd" clip-rule="evenodd" d="M97.9121 0H98.6986V18.8764H97.9121V0Z" fill="black" fill-opacity="0.4"/>
</svg>
