<svg width="56" height="10" viewBox="0 0 56 10" fill="none" xmlns="http://www.w3.org/2000/svg">
<path d="M10.4394 7.99734H9.08203V3.19824H13.9686V7.99734H12.6115V4.13054H10.4394V7.99734Z" fill="#60B238"/>
<path d="M14.627 4.51477V9.26626H15.8779V7.64136C16.2971 8.09406 16.98 8.12827 17.1446 8.12827C18.3376 8.12827 19.0697 7.36697 19.0697 6.26317C19.0697 5.11147 18.3456 4.38477 17.1694 4.38477C16.8729 4.38477 16.2971 4.43277 15.8199 4.93337H15.7953L15.8034 4.51477H14.627V4.51477ZM15.8199 6.24937C15.8199 5.27607 16.4207 5.08417 16.7992 5.08417C17.1694 5.08417 17.7699 5.27607 17.7699 6.24937C17.7699 6.85297 17.515 7.42906 16.7992 7.42906C16.067 7.42906 15.8199 6.85297 15.8199 6.24937V6.24937Z" fill="#60B238"/>
<path d="M22.1711 7.57975C21.7106 8.01135 21.2669 8.12815 20.7728 8.12815C19.4236 8.12815 19.374 7.11335 19.374 6.69525V4.51465H20.6246V6.53045C20.6246 7.22315 20.8638 7.42895 21.3241 7.42895C22.1135 7.42895 22.1711 6.72265 22.1711 6.46895V4.51465H23.4222V7.99765H22.1711V7.57975V7.57975Z" fill="#60B238"/>
<path d="M25.2154 6.53045H25.9806C26.5725 6.53045 26.696 6.70885 26.696 6.94205C26.696 7.09275 26.6134 7.29855 25.9961 7.29855H25.2154V6.53045ZM23.9648 4.51465V7.99765H26.4494C27.3543 7.99765 27.9794 7.81945 27.9794 7.10645C27.9794 6.55795 27.6746 6.31805 26.9839 6.19475V6.17405C27.4365 6.11235 27.8316 5.83115 27.8316 5.35825C27.8316 4.51465 26.8442 4.51465 26.4575 4.51465H23.9648V4.51465ZM25.2154 5.21435H25.8895C26.2434 5.21435 26.5475 5.26915 26.5475 5.55685C26.5475 5.87255 26.0705 5.87935 25.8649 5.87935H25.2154V5.21435Z" fill="#60B238"/>
<path d="M29.5592 5.63937C29.5592 5.12517 30.1021 5.08417 30.3244 5.08417C30.4644 5.08417 30.9823 5.09107 30.9992 5.54347C30.9992 5.57777 30.9992 5.60517 30.9992 5.63937C30.9745 5.98217 30.6454 5.91367 29.7243 6.03017C28.9669 6.13297 28.1689 6.32477 28.1689 7.12037C28.1689 7.40837 28.2924 8.12827 29.6252 8.12827C30.1356 8.12827 30.6951 7.99777 31.0236 7.65517H31.049L31.1555 7.99777H32.4717V7.93626C32.2332 7.88816 32.2167 7.65517 32.2248 7.27797L32.2495 5.68717C32.2579 5.28297 32.2167 4.38477 30.3328 4.38477C29.8802 4.38477 28.424 4.42577 28.3664 5.63937H29.5592V5.63937ZM31.0073 6.55807C31.0073 7.25747 30.3984 7.42906 30.0944 7.42906C29.8636 7.42906 29.4523 7.35337 29.4523 7.02447C29.4523 6.63347 29.9211 6.55806 30.1847 6.52376C30.6701 6.45516 30.6288 6.47587 31.0073 6.33857V6.55807V6.55807Z" fill="#60B238"/>
<path d="M32.3887 5.21435V4.51465H36.4033V5.21435H35.0212V7.99765H33.7709V5.21435H32.3887Z" fill="#60B238"/>
<path d="M38.0005 4.13054H41.1183V3.19824H36.6426V7.99734H39.3904C40.7235 7.99734 41.5787 7.53144 41.5787 6.55074C41.5787 5.01524 39.8677 4.98074 39.3904 4.98074H38.0005V4.13054V4.13054ZM38.0005 5.91324H39.1272C39.4571 5.91324 40.1147 5.94764 40.1147 6.52334C40.1147 6.97594 39.6373 7.06494 39.1029 7.06494H38.0005V5.91324V5.91324Z" fill="#60B238"/>
<path d="M43.2077 5.63937C43.2077 5.12517 43.7509 5.08417 43.9725 5.08417C44.1125 5.08417 44.6311 5.09107 44.6477 5.54347C44.6477 5.57777 44.6477 5.60517 44.6477 5.63937C44.6227 5.98217 44.2939 5.91367 43.3717 6.03017C42.6153 6.13297 41.8174 6.32477 41.8174 7.12037C41.8174 7.40837 41.9405 8.12827 43.2733 8.12827C43.7834 8.12827 44.3429 7.99777 44.672 7.65517H44.6964L44.8036 7.99777H46.1198V7.93626C45.8821 7.88816 45.8648 7.65517 45.8733 7.27797L45.8979 5.68717C45.9061 5.28297 45.8648 4.38477 43.9806 4.38477C43.5287 4.38477 42.0721 4.42577 42.0146 5.63937H43.2077V5.63937ZM44.6555 6.55807C44.6555 7.25747 44.0466 7.42906 43.7425 7.42906C43.5121 7.42906 43.1008 7.35337 43.1008 7.02447C43.1008 6.63347 43.5693 6.55806 43.8324 6.52376C44.3182 6.45516 44.2769 6.47587 44.6555 6.33857V6.55807V6.55807Z" fill="#60B238"/>
<path d="M47.6832 7.99765H46.4326V4.51465H47.6832V5.82435H49.1889V4.51465H50.4395V7.99765H49.1889V6.52365H47.6832V7.99765Z" fill="#60B238"/>
<path d="M53.5983 4.51465H54.9882L53.2691 6.14635L55.0708 7.99765H53.606L52.257 6.47575H52.2327V7.99765H50.9824V4.51465H52.2327V5.91355H52.257L53.5983 4.51465Z" fill="#60B238"/>
<path d="M0 8.01023H3.1323V4.87793H0V8.01023Z" fill="#373435"/>
<path d="M6.35843 1.6559C6.35843 2.721 6.35843 5.2898 6.35843 6.3549C6.06093 6.3549 6.00853 6.3549 5.71943 6.3549C5.44353 4.031 3.98333 2.5712 1.65903 2.2953C1.65903 2.0062 1.65903 1.954 1.65903 1.6559C2.72423 1.6559 5.29323 1.6559 6.35843 1.6559V1.6559ZM0.00292969 0V3.8987H0.831229C3.01093 3.8987 4.11613 5.0037 4.11613 7.1827V8.011H8.01453V0H0.00292969V0Z" fill="#60B238"/>
</svg>
