<svg width="567" height="138" viewBox="0 0 567 138" fill="none" xmlns="http://www.w3.org/2000/svg">
<g clip-path="url(#clip0_1967_249)">
<path fill-rule="evenodd" clip-rule="evenodd" d="M49.47 32.3301H88.21C109.01 32.3301 116.84 42.8601 115.63 58.3301C113.63 83.8701 98.19 98.0001 77.71 98.0001H67.37C64.56 98.0001 62.67 99.8601 61.91 104.9L57.52 134.2C57.23 136.1 56.2301 137.2 54.7301 137.35H30.39C28.1 137.35 27.29 135.6 27.89 131.81L42.7301 37.8801C43.3101 34.1201 45.37 32.3301 49.47 32.3301Z" fill="#009EE3"/>
<path fill-rule="evenodd" clip-rule="evenodd" d="M217.66 30.5898C230.73 30.5898 242.79 37.6799 241.14 55.3499C239.14 76.3499 227.89 87.9698 210.14 88.0198H194.63C192.4 88.0198 191.32 89.8398 190.74 93.5698L187.74 112.64C187.29 115.52 185.81 116.94 183.63 116.94H169.2C166.9 116.94 166.1 115.47 166.61 112.18L178.52 35.7498C179.11 31.9898 180.52 30.5898 183.09 30.5898H217.63H217.66ZM194.16 71.5098H205.91C213.26 71.2298 218.14 66.1398 218.63 56.9598C218.93 51.2898 215.1 47.2298 209.01 47.2598L197.95 47.3098L194.16 71.5098ZM280.37 111.09C281.69 109.89 283.03 109.27 282.84 110.75L282.37 114.29C282.13 116.14 282.86 117.12 284.58 117.12H297.4C299.56 117.12 300.61 116.25 301.14 112.91L309.04 63.3298C309.44 60.8398 308.83 59.6198 306.94 59.6198H292.84C291.57 59.6198 290.95 60.3298 290.62 62.2698L290.1 65.3198C289.83 66.9098 289.1 67.1898 288.42 65.5898C286.03 59.9298 279.93 57.3898 271.42 57.5898C251.65 57.9998 238.32 73.0098 236.89 92.2498C235.79 107.13 246.45 118.82 260.51 118.82C270.71 118.82 275.27 115.82 280.41 111.12L280.37 111.09ZM269.63 103.46C261.12 103.46 255.19 96.6699 256.42 88.3499C257.65 80.0299 265.61 73.2398 274.12 73.2398C282.63 73.2398 288.56 80.0299 287.33 88.3499C286.1 96.6699 278.15 103.46 269.63 103.46ZM334.13 59.4598H321.13C318.45 59.4598 317.36 61.4598 318.21 63.9198L334.35 111.18L318.52 133.67C317.19 135.55 318.22 137.26 320.09 137.26H334.7C335.552 137.358 336.414 137.21 337.183 136.832C337.953 136.455 338.597 135.864 339.04 135.13L388.68 63.9298C390.21 61.7398 389.49 59.4398 386.98 59.4398H373.15C370.78 59.4398 369.83 60.3799 368.47 62.3499L347.77 92.3499L338.52 62.2798C337.98 60.4598 336.63 59.4598 334.14 59.4598H334.13Z" fill="#113984"/>
<path fill-rule="evenodd" clip-rule="evenodd" d="M440.32 30.5903C453.39 30.5903 465.45 37.6803 463.8 55.3503C461.8 76.3503 450.55 87.9703 432.8 88.0203H417.3C415.07 88.0203 413.99 89.8403 413.41 93.5703L410.41 112.64C409.96 115.52 408.48 116.94 406.3 116.94H391.87C389.57 116.94 388.77 115.47 389.28 112.18L401.21 35.7303C401.8 31.9703 403.21 30.5703 405.78 30.5703H440.32V30.5903ZM416.82 71.5103H428.57C435.92 71.2303 440.8 66.1403 441.29 56.9603C441.59 51.2903 437.76 47.2303 431.67 47.2603L420.61 47.3103L416.82 71.5103V71.5103ZM503.03 111.09C504.35 109.89 505.69 109.27 505.5 110.75L505.03 114.29C504.79 116.14 505.52 117.12 507.24 117.12H520.06C522.22 117.12 523.27 116.25 523.8 112.91L531.7 63.3303C532.1 60.8403 531.49 59.6203 529.6 59.6203H515.52C514.25 59.6203 513.63 60.3303 513.3 62.2703L512.78 65.3203C512.51 66.9103 511.78 67.1903 511.1 65.5903C508.71 59.9303 502.61 57.3903 494.1 57.5903C474.33 58.0003 461 73.0103 459.57 92.2503C458.47 107.13 469.13 118.82 483.19 118.82C493.39 118.82 497.95 115.82 503.09 111.12L503.03 111.09ZM492.3 103.46C483.79 103.46 477.86 96.6703 479.09 88.3503C480.32 80.0303 488.28 73.2403 496.79 73.2403C505.3 73.2403 511.23 80.0303 510 88.3503C508.77 96.6703 500.81 103.46 492.3 103.46ZM551.43 117.2H536.63C536.373 117.212 536.116 117.166 535.878 117.067C535.64 116.968 535.428 116.817 535.255 116.626C535.082 116.435 534.953 116.208 534.878 115.962C534.803 115.715 534.783 115.455 534.82 115.2L547.82 32.8403C547.944 32.2782 548.255 31.7747 548.702 31.4116C549.148 31.0484 549.705 30.8471 550.28 30.8403H565.08C565.338 30.8288 565.595 30.8743 565.832 30.9735C566.07 31.0727 566.283 31.2232 566.456 31.4143C566.629 31.6054 566.758 31.8323 566.833 32.0788C566.908 32.3253 566.927 32.5853 566.89 32.8403L553.89 115.2C553.77 115.766 553.461 116.274 553.014 116.641C552.567 117.008 552.009 117.213 551.43 117.22V117.2Z" fill="#009EE3"/>
<path fill-rule="evenodd" clip-rule="evenodd" d="M25.2403 0H64.0203C74.9403 0 87.9003 0.35 96.5603 8C102.35 13.11 105.39 21.24 104.69 30C102.31 59.61 84.6003 76.2 60.8403 76.2H41.7203C38.4603 76.2 36.3103 78.36 35.3903 84.2L30.0503 118.2C29.7003 120.4 28.7503 121.7 27.0503 121.86H3.12027C0.470273 121.86 -0.469736 119.86 0.220264 115.44L17.4203 6.45999C18.1103 2.07999 20.5203 0 25.2403 0Z" fill="#113984"/>
<path fill-rule="evenodd" clip-rule="evenodd" d="M35.9502 80.7503L42.7202 37.8803C43.3102 34.1203 45.3702 32.3203 49.4702 32.3203H88.2102C94.6202 32.3203 99.8102 33.3203 103.87 35.1703C99.9802 61.5303 82.9302 76.1703 60.6102 76.1703H41.5202C38.9602 76.1803 37.0802 77.4603 35.9502 80.7503Z" fill="#172C70"/>
</g>
<defs>
<clipPath id="clip0_1967_249">
<rect width="566.93" height="137.35" fill="white"/>
</clipPath>
</defs>
</svg>
